<?xml version="1.0" standalone="no"?><!DOCTYPE svg PUBLIC "-//W3C//DTD SVG 1.1//EN" "http://www.w3.org/Graphics/SVG/1.1/DTD/svg11.dtd"><svg t="1612007962516" class="icon" viewBox="0 0 1170 1024" version="1.1" xmlns="http://www.w3.org/2000/svg" p-id="3925" xmlns:xlink="http://www.w3.org/1999/xlink" width="228.515625" height="200"><defs><style type="text/css"></style></defs><path d="M926.208 25.892571l61.878857 33.353143 33.316572 33.353143h33.316571l33.316571 33.353143h42.825143l33.316572-19.017143v52.370286l-33.28 33.353143 33.28 66.706285-33.28 33.353143-33.353143 33.353143-61.878857 33.353143h-61.842286l-33.316571 66.706286v33.353143h57.088v33.353142l-23.771429 33.353143 33.28 33.353143 33.353143 33.353143v133.412571l-38.107429 85.76-57.088 47.652572-33.316571 33.353143h-33.316572l-33.316571 33.353143h-33.316571l-42.861715 9.508571-4.754285 14.336s-9.508571 4.754286-9.508572 0l-9.508571-14.299429-61.878857-14.299428-33.316572-23.808h-57.124571l-33.316572 23.808h-33.316571l-33.316572-33.353143v-33.353143h-33.316571v-33.353143l33.316571-47.652571-157.074285-14.262857L288.438857 716.8l-80.932571 9.508571-33.28-66.706285h-33.353143l-33.28-33.353143-33.353143-33.353143v-104.813714l-33.28-33.353143v-85.76l-33.353143-14.299429v-33.353143H69.485714l61.878857-33.353142 33.316572-66.706286h61.878857V154.550857l61.878857-33.353143 61.878857 33.353143 33.28 66.706286 61.915429 66.706286 95.158857 33.353142 61.878857 33.353143h128.512l33.316572-100.059428h33.316571l61.878857-33.353143-33.28-33.353143 33.28-66.706286V59.245714l33.316572-33.353143h33.316571zM747.410286 731.428571c-39.131429 0-70.838857 8.192-70.838857 18.285715s31.707429 18.285714 70.875428 18.285714c39.131429 0 70.838857-8.192 70.838857-18.285714s-31.707429-18.285714-70.875428-18.285715z m2.304-329.142857a128 128 0 0 0-119.881143 172.946286 103.606857 103.606857 0 0 0 194.267428 59.245714A128 128 0 0 0 749.714286 402.285714z" fill="#607BE5" p-id="3926"></path><path d="M732.964571 985.234286v-9.545143s4.827429 0 4.827429-4.790857c0 0 0-4.790857 4.864-4.790857 0 0 0-4.754286 4.827429-4.754286l9.728-4.827429s14.518857-4.754286 14.518857-9.581714c4.864-4.754286 14.555429-9.545143 14.555428-4.754286v19.126857s-4.864 14.372571-4.864 19.163429l-14.518857 14.336-9.691428 4.790857s-9.728-4.754286-14.555429-4.754286h-4.864l-4.827429-4.790857v-4.790857zM1032.155429 818.358857l4.864-14.262857 4.864-4.754286 4.827428-9.508571 9.691429-4.754286v-4.717714l4.864-4.754286h4.864v4.754286h4.827428l4.864 4.754286-4.864 4.754285v4.754286l4.864 4.754286v4.754285l-4.864 9.472v28.489143l-4.827428 18.980572-9.728 9.508571v28.452572h-4.827429v-4.754286l-4.864-9.508572-4.827428-4.717714-9.728-4.754286-4.827429-14.262857h-4.864v-18.944l4.864-14.262857z" fill="#607BE5" p-id="3927"></path><path d="M749.714286 446.683429a48.64 48.64 0 0 0-35.035429 14.811428c-9.325714 9.581714-14.518857 22.308571-14.518857 35.84 0 13.494857 5.193143 26.185143 14.518857 35.766857a48.859429 48.859429 0 0 0 70.070857 0 50.834286 50.834286 0 0 0 14.518857-35.803428c0-13.531429-5.12-26.221714-14.518857-35.803429a48.64 48.64 0 0 0-35.035428-14.811428z m151.552-17.152a163.986286 163.986286 0 0 0-35.328-52.297143 163.803429 163.803429 0 0 0-52.297143-35.145143A162.852571 162.852571 0 0 0 749.714286 329.142857a163.620571 163.620571 0 0 0-116.224 48.054857A164.498286 164.498286 0 0 0 585.142857 493.677714c0 31.926857 7.460571 63.707429 22.162286 94.354286a298.788571 298.788571 0 0 0 49.115428 71.460571 396.617143 396.617143 0 0 0 83.346286 69.193143 19.090286 19.090286 0 0 0 19.821714 0c10.569143-6.4 47.798857-30.208 83.346286-69.193143a297.874286 297.874286 0 0 0 49.115429-71.460571A215.661714 215.661714 0 0 0 914.285714 493.750857c0-22.272-4.388571-43.885714-13.019428-64.219428zM749.714286 576.877714c-43.008 0-77.860571-35.620571-77.860572-79.579428 0-43.922286 34.852571-79.542857 77.860572-79.542857 43.008 0 77.860571 35.620571 77.860571 79.542857 0 43.958857-34.852571 79.579429-77.860571 79.579428z" fill="#6CD975" p-id="3928"></path></svg>