<?xml version="1.0" standalone="no"?><!DOCTYPE svg PUBLIC "-//W3C//DTD SVG 1.1//EN" "http://www.w3.org/Graphics/SVG/1.1/DTD/svg11.dtd"><svg t="1607424376693" class="icon" viewBox="0 0 1024 1024" version="1.1" xmlns="http://www.w3.org/2000/svg" p-id="6775" xmlns:xlink="http://www.w3.org/1999/xlink" width="200" height="200"><defs><style type="text/css"></style></defs><path d="M512.042667 960.085333a32.896 32.896 0 0 1-15.786667-4.266666l-183.466667-105.386667a31.914667 31.914667 0 0 1-15.914666-27.477333v-211.626667a32 32 0 0 1 15.914666-27.477333l6.485334-3.669334-6.485334-3.669333a32.042667 32.042667 0 0 1-15.914666-27.52v-9.002667l-10.197334 5.930667a31.914667 31.914667 0 0 1-31.616 0l-183.466666-105.386667a31.829333 31.829333 0 0 1-15.573334-27.733333v-211.626667a31.488 31.488 0 0 1 15.914667-27.477333l183.253333-105.344a31.914667 31.914667 0 0 1 31.616 0l183.466667 105.429333a32 32 0 0 1 15.914667 27.477334v9.002666l10.154666-5.930666a31.914667 31.914667 0 0 1 31.616 0l10.112 5.802666v-8.96a31.488 31.488 0 0 1 15.829334-27.477333l183.210666-105.344a31.914667 31.914667 0 0 1 31.445334 0l183.466666 105.344a31.530667 31.530667 0 0 1 16 27.477333v211.626667a32.042667 32.042667 0 0 1-16 27.477333l-183.466666 105.514667a31.658667 31.658667 0 0 1-31.616 0l-10.112-5.802667v8.917334a31.914667 31.914667 0 0 1-15.914667 27.477333l-6.485333 3.669333 6.485333 3.712a31.914667 31.914667 0 0 1 15.914667 27.477334v211.498666a31.914667 31.914667 0 0 1-15.914667 27.477334l-183.466667 105.386666a32.896 32.896 0 0 1-15.402666 4.48z m-120.405334-338.517333l-22.613333 13.013333v164.992l143.018667 82.176 143.018666-82.176v-164.992l-22.613333-13.013333-104.618667 60.117333a31.616 31.616 0 0 1-31.573333 0l-104.618667-60.117333zM512 552.277333l-74.197333 42.666667 74.197333 42.666667 74.197333-42.666667-74.197333-42.666667z m0-78.037333a31.658667 31.658667 0 0 1 15.786667 4.266667l130.730666 75.050666 22.485334-12.8v-27.093333l-127.146667-73.301333a31.829333 31.829333 0 0 1-15.829333-27.477334V263.210667l-25.898667-14.890667-26.112 14.976v149.333333a32 32 0 0 1-15.914667 27.477334L343.04 513.408v27.178667l22.485333 12.8 130.730667-75.050667a31.658667 31.658667 0 0 1 15.786667-4.053333z m240.981333-331.989333l-142.976 82.218666v27.008l101.205334 58.197334a31.829333 31.829333 0 0 1 15.829333 27.477333v119.722667l25.898667 14.805333 143.104-82.218667V224.469333l-143.018667-82.218666z m-482.133333 0L128.042667 224.469333v165.034667l142.976 82.218667 25.984-15.104v-119.466667a31.914667 31.914667 0 0 1 15.914666-27.477333l101.12-58.112v-27.093334L271.018667 142.250667z m338.986667 162.133333v85.12l70.997333 40.874667V345.386667z m-196.010667 0.213333l-70.784 41.088v84.906667l70.997333-40.789333z" p-id="6776"></path></svg>