<?xml version="1.0" standalone="no"?><!DOCTYPE svg PUBLIC "-//W3C//DTD SVG 1.1//EN" "http://www.w3.org/Graphics/SVG/1.1/DTD/svg11.dtd"><svg t="1605606833258" class="icon" viewBox="0 0 1229 1024" version="1.1" xmlns="http://www.w3.org/2000/svg" p-id="6150" xmlns:xlink="http://www.w3.org/1999/xlink" width="240.0390625" height="200"><defs><style type="text/css"></style></defs><path d="M1204.355584 0h-93.696a32.256 32.256 0 0 0-28.672 34.816v954.368a32.256 32.256 0 0 0 28.672 34.816h93.696a27.136 27.136 0 0 0 24.576-29.696V29.696a27.136 27.136 0 0 0-24.576-29.696zM1006.211584 946.688h-228.352a32.256 32.256 0 0 0-28.672 34.816v7.68a32.256 32.256 0 0 0 28.672 34.816h228.352a32.768 32.768 0 0 0 28.672-34.816v-7.68a32.256 32.256 0 0 0-28.672-34.816zM701.059584 946.688h-6.656a32.256 32.256 0 0 0-28.672 34.816v7.68a32.768 32.768 0 0 0 28.672 34.816h6.656a32.768 32.768 0 0 0 28.672-34.816v-7.68a32.256 32.256 0 0 0-28.672-34.816zM534.659584 946.688H307.331584a32.256 32.256 0 0 0-28.672 34.816v7.68A32.256 32.256 0 0 0 307.331584 1024h228.352a32.768 32.768 0 0 0 28.672-34.816v-7.68a32.256 32.256 0 0 0-29.696-34.816zM228.995584 946.688h-6.144a32.256 32.256 0 0 0-28.672 34.816v7.68a32.256 32.256 0 0 0 28.672 34.816h6.144a32.256 32.256 0 0 0 27.136-34.816v-7.68a32.256 32.256 0 0 0-27.136-34.816zM118.403584 0H28.803584A32.256 32.256 0 0 0 0.131584 34.816v959.488a27.136 27.136 0 0 0 24.576 29.696h97.792a27.136 27.136 0 0 0 24.576-29.696V34.816A32.256 32.256 0 0 0 118.403584 0zM1006.211584 0H916.611584a32.256 32.256 0 0 0-28.672 34.816V819.2a32.256 32.256 0 0 0 28.672 34.816h89.6a32.768 32.768 0 0 0 28.672-34.816V34.816a32.768 32.768 0 0 0-28.672-34.816zM805.507584 855.04h6.144a32.256 32.256 0 0 0 28.672-34.816V34.816a32.256 32.256 0 0 0-28.672-34.816h-6.144a32.256 32.256 0 0 0-28.672 34.816V819.2a32.256 32.256 0 0 0 28.672 35.84zM757.379584 34.816a32.256 32.256 0 0 0-28.672-34.816h-6.656a32.768 32.768 0 0 0-28.672 34.816V819.2a32.768 32.768 0 0 0 28.672 34.816h6.656a32.256 32.256 0 0 0 28.672-34.816zM617.603584 0h-89.6a32.256 32.256 0 0 0-28.672 34.816V819.2a32.256 32.256 0 0 0 28.672 34.816h89.6a32.256 32.256 0 0 0 28.672-34.816V34.816a32.256 32.256 0 0 0-28.672-34.816zM417.411584 855.04h6.144a32.256 32.256 0 0 0 28.672-35.84V34.816A32.256 32.256 0 0 0 423.555584 0h-6.144a32.256 32.256 0 0 0-28.672 34.816V819.2a32.256 32.256 0 0 0 28.672 35.84zM222.851584 855.04H312.451584a32.256 32.256 0 0 0 28.672-35.84V34.816A32.256 32.256 0 0 0 312.451584 0H222.851584a32.256 32.256 0 0 0-28.672 34.816V819.2a32.256 32.256 0 0 0 28.672 35.84z" p-id="6151"></path></svg>