<?xml version="1.0" standalone="no"?><!DOCTYPE svg PUBLIC "-//W3C//DTD SVG 1.1//EN" "http://www.w3.org/Graphics/SVG/1.1/DTD/svg11.dtd"><svg t="1607419982156" class="icon" viewBox="0 0 1024 1024" version="1.1" xmlns="http://www.w3.org/2000/svg" p-id="5719" xmlns:xlink="http://www.w3.org/1999/xlink" width="200" height="200"><defs><style type="text/css"></style></defs><path d="M384.030991 611.436678 384.030991 497.21961c0-15.141062 6.686962-29.438346 18.843684-40.297262 12.172026-10.843612 28.203798-16.828617 45.15587-16.828617L448.030545 382.968872c-70.404917 0-128.000128 51.406149-128.000128 114.219109l0 85.656169c0 15.780782-14.344217 28.531311-31.999267 28.531311l-32.000287 0 0 57.123838 32.000287 0c17.65607 0 31.999267 12.812766 31.999267 28.562939l0 85.656169c0 62.811939 57.594191 114.217068 128.000128 114.217068l0-57.123838c-16.952071 0-32.983844-5.999289-45.15587-16.842901-12.156722-10.844632-18.843684-25.157221-18.843684-40.280938L384.030991 668.436041c0-15.750173-14.344217-28.53029-31.999267-28.53029 17.65607 0 31.999267-12.781137 31.999267-28.531311L384.030991 611.436678zM640.030226 668.561537l0 114.219109c0 15.155346-6.687982 29.437326-18.843684 40.279917-12.156722 10.875241-28.219103 16.843921-45.15689 16.843921l0 57.125879c70.405937 0 128.000128-51.407169 128.000128-114.219109L704.02978 697.156105c0-15.781802 14.344217-28.531311 31.999267-28.531311l32.000287 0 0-57.124859-32.000287 0c-17.65607 0-31.999267-12.812766-31.999267-28.561919l0-85.656169c0-62.811939-57.594191-114.202784-128.000128-114.202784l0 57.109554c16.937787 0 33.000168 5.985005 45.15689 16.843921 12.155701 10.843612 18.843684 25.140896 18.843684 40.280938l0 114.249717c0 15.750173 14.344217 28.531311 31.999267 28.531311-17.65607 0-31.999267 12.781137-31.999267 28.531311L640.030226 668.561537zM903.466334 199.42227 760.59144 56.579005c-31.12386-31.109576-92.593102-56.579005-136.592986-56.579005L143.999251 0c-43.999884 0-79.999697 36.000833-79.999697 80.000717l0 863.998565c0 43.999884 36.000833 80.000717 79.999697 80.000717l735.998438 0c44.000905 0 80.000717-36.000833 80.000717-80.000717l0-607.99933c0-43.999884-25.469429-105.468106-56.594309-136.577682L903.466334 199.42227zM858.217618 244.672007c3.12514 3.140444 6.249259 6.984886 9.249924 11.328249L704.0308 256.000255 704.0308 92.547189c4.373971 3.031273 8.186784 6.141109 11.312944 9.281552L858.217618 244.672007 858.217618 244.672007zM896.029461 943.999283c0 8.686725-7.312398 16.000143-16.000143 16.000143L144.03088 959.999426c-8.672441 0-16.001164-7.313418-16.001164-16.000143L128.029716 80.000717c0-8.672441 7.328723-16.001164 16.001164-16.001164l479.999203 0c4.812695 0 10.248785 0.609111 16.000143 1.687555l0 254.31168 254.31066 0c1.06416 5.765643 1.688575 11.172145 1.688575 16.000143L896.029461 943.999283z" p-id="5720"></path></svg>