<?xml version="1.0" standalone="no"?><!DOCTYPE svg PUBLIC "-//W3C//DTD SVG 1.1//EN" "http://www.w3.org/Graphics/SVG/1.1/DTD/svg11.dtd"><svg t="1607423665106" class="icon" viewBox="0 0 1024 1024" version="1.1" xmlns="http://www.w3.org/2000/svg" p-id="6466" xmlns:xlink="http://www.w3.org/1999/xlink" width="200" height="200"><defs><style type="text/css"></style></defs><path d="M946.496 160l6.016 232h-67.52c0-54.336-11.168-95.264-33.504-122.752-22.336-27.52-53.312-41.088-92.992-40.736l-48.992 0.48v516.48a64 64 0 0 0 64 64h13.984v67.52h-298.976v-67.52l9.408-0.096a64 64 0 0 0 63.584-64V230.016h-47.52c-38.976 0-69.76 13.152-92.224 39.488-22.496 26.336-33.92 67.168-34.24 122.496H320L326.016 160h620.48z" fill="#565656" p-id="6467"></path><path d="M455.456 428.992l3.744 144.96h-42.176c0-33.92-6.976-59.52-20.928-76.704-13.952-17.184-33.312-25.664-58.112-25.44l-30.624 0.32v313.952c0 26.912 21.824 48.736 48.736 48.736v42.176H169.28v-42.176a47.008 47.008 0 0 0 45.6-46.976v-315.104h-29.664c-24.384 0-43.584 8.224-57.632 24.672-14.08 16.48-21.184 41.984-21.408 76.544H64l3.744-144.96h387.712z" fill="#A9A9A9" p-id="6468"></path></svg>