<?xml version="1.0" standalone="no"?><!DOCTYPE svg PUBLIC "-//W3C//DTD SVG 1.1//EN" "http://www.w3.org/Graphics/SVG/1.1/DTD/svg11.dtd"><svg t="1605607170789" class="icon" viewBox="0 0 1024 1024" version="1.1" xmlns="http://www.w3.org/2000/svg" p-id="7310" xmlns:xlink="http://www.w3.org/1999/xlink" width="200" height="200"><defs><style type="text/css"></style></defs><path d="M608 1002.666667a74.666667 74.666667 0 1 0 0-149.333334 74.666667 74.666667 0 0 0 0 149.333334zM202.666667 1002.666667a74.666667 74.666667 0 1 0 0-149.333334 74.666667 74.666667 0 0 0 0 149.333334z" fill="#0A0A0A" p-id="7311"></path><path d="M794.325333 42.666667H960v85.333333h-90.325333l-71.317334 570.538667A128 128 0 0 1 671.317333 810.666667H64v-85.333334h607.338667a42.666667 42.666667 0 0 0 42.325333-37.376L794.325333 42.666667z" fill="#0A0A0A" p-id="7312"></path><path d="M426.666667 405.333333h-128v-192h128v192z" fill="#0A0A0A" p-id="7313"></path><path d="M64 128h597.333333v512H64V128z m85.333333 85.333333v341.333334h426.666667V213.333333H149.333333z" fill="#0A0A0A" p-id="7314"></path></svg>