<?xml version="1.0" standalone="no"?><!DOCTYPE svg PUBLIC "-//W3C//DTD SVG 1.1//EN" "http://www.w3.org/Graphics/SVG/1.1/DTD/svg11.dtd"><svg t="1605606827193" class="icon" viewBox="0 0 1024 1024" version="1.1" xmlns="http://www.w3.org/2000/svg" p-id="6004" xmlns:xlink="http://www.w3.org/1999/xlink" width="200" height="200"><defs><style type="text/css"></style></defs><path d="M870.874074 881.777778H543.668148c-15.739259 0-28.444444-12.705185-28.444444-28.444445s12.705185-28.444444 28.444444-28.444444h327.205926c21.712593 0 39.348148-17.635556 39.348148-39.348148V238.08c0-21.617778-17.540741-39.158519-39.158518-39.158519H733.013333v219.401482c0 15.739259-12.705185 28.444444-28.444444 28.444444H318.198519c-15.739259 0-28.444444-12.705185-28.444445-28.444444s12.705185-28.444444 28.444445-28.444444h357.925925V170.477037c0-15.739259 12.705185-28.444444 28.444445-28.444444h166.4c53.001481 0 96.047407 43.140741 96.047407 96.047407v547.555556c0.094815 53.001481-43.045926 96.142222-96.142222 96.142222z" p-id="6005"></path><path d="M320.853333 881.398519H154.453333c-53.001481 0-96.047407-43.140741-96.047407-96.047408V238.08c0-53.001481 43.140741-96.047407 96.047407-96.047407 15.739259 0 28.444444 12.705185 28.444445 28.444444s-12.705185 28.444444-28.444445 28.444444c-21.617778 0-39.158519 17.540741-39.158518 39.158519v547.176296c0 21.617778 17.540741 39.158519 39.158518 39.158519h137.955556V613.831111c0-15.739259 12.705185-28.444444 28.444444-28.444444h383.715556c15.739259 0 28.444444 12.705185 28.444444 28.444444s-12.705185 28.444444-28.444444 28.444445H349.297778v210.678518c0 15.739259-12.8 28.444444-28.444445 28.444445z" p-id="6006"></path><path d="M263.774815 170.477037m-27.022222 0a27.022222 27.022222 0 1 0 54.044444 0 27.022222 27.022222 0 1 0-54.044444 0Z" p-id="6007"></path><path d="M263.774815 211.721481c-22.755556 0-41.244444-18.488889-41.244445-41.244444s18.488889-41.244444 41.244445-41.244444 41.244444 18.488889 41.244444 41.244444-18.488889 41.244444-41.244444 41.244444z m0-54.139259c-7.111111 0-12.8 5.783704-12.8 12.8 0 7.111111 5.783704 12.8 12.8 12.8s12.8-5.783704 12.8-12.8-5.688889-12.8-12.8-12.8z" p-id="6008"></path><path d="M380.302222 170.477037m-27.022222 0a27.022222 27.022222 0 1 0 54.044444 0 27.022222 27.022222 0 1 0-54.044444 0Z" p-id="6009"></path><path d="M380.302222 211.721481c-22.755556 0-41.244444-18.488889-41.244444-41.244444s18.488889-41.244444 41.244444-41.244444 41.244444 18.488889 41.244445 41.244444-18.488889 41.244444-41.244445 41.244444z m0-54.139259c-7.111111 0-12.8 5.783704-12.8 12.8 0 7.111111 5.783704 12.8 12.8 12.8s12.8-5.783704 12.8-12.8-5.688889-12.8-12.8-12.8z" p-id="6010"></path><path d="M496.82963 170.477037m-27.022223 0a27.022222 27.022222 0 1 0 54.044445 0 27.022222 27.022222 0 1 0-54.044445 0Z" p-id="6011"></path><path d="M496.82963 211.721481c-22.755556 0-41.244444-18.488889-41.244445-41.244444s18.488889-41.244444 41.244445-41.244444 41.244444 18.488889 41.244444 41.244444c0.094815 22.755556-18.488889 41.244444-41.244444 41.244444z m0-54.139259c-7.111111 0-12.8 5.783704-12.8 12.8 0 7.111111 5.783704 12.8 12.8 12.8 7.111111 0 12.8-5.783704 12.8-12.8 0.094815-7.016296-5.688889-12.8-12.8-12.8z" p-id="6012"></path></svg>