<?xml version="1.0" standalone="no"?><!DOCTYPE svg PUBLIC "-//W3C//DTD SVG 1.1//EN" "http://www.w3.org/Graphics/SVG/1.1/DTD/svg11.dtd"><svg t="1611803849385" class="icon" viewBox="0 0 1024 1024" version="1.1" xmlns="http://www.w3.org/2000/svg" p-id="2657" xmlns:xlink="http://www.w3.org/1999/xlink" width="200" height="200"><defs><style type="text/css"></style></defs><path d="M341.333333 490.666667A64 64 0 1 0 277.333333 554.666667 64 64 0 0 0 341.333333 490.666667z m298.666667-213.333334A64 64 0 0 0 576 213.333333h-128a64 64 0 0 0 0 128h128A64 64 0 0 0 640 277.333333zM362.666667 640a64 64 0 1 0 64 64A64 64 0 0 0 362.666667 640zM512 42.666667a469.333333 469.333333 0 1 0 469.333333 469.333333A469.333333 469.333333 0 0 0 512 42.666667z m0 853.333333a384 384 0 1 1 384-384 384 384 0 0 1-384 384z m234.666667-469.333333a64 64 0 1 0 64 64 64 64 0 0 0-64-64z m-85.333334 213.333333a64 64 0 1 0 64 64 64 64 0 0 0-64-64z" fill="#1296db" p-id="2658"></path></svg>