<?xml version="1.0" standalone="no"?><!DOCTYPE svg PUBLIC "-//W3C//DTD SVG 1.1//EN" "http://www.w3.org/Graphics/SVG/1.1/DTD/svg11.dtd"><svg t="1607393052319" class="icon" viewBox="0 0 1024 1024" version="1.1" xmlns="http://www.w3.org/2000/svg" p-id="1631" xmlns:xlink="http://www.w3.org/1999/xlink" width="200" height="200"><defs><style type="text/css"></style></defs><path d="M199.68 953.6h-1.92c-28.8-0.64-55.04-12.16-74.88-32.64-38.4-40.96-36.48-106.88 4.48-147.84l44.16-44.16c-21.12-21.12-32-49.92-30.72-79.36 1.28-29.44 16-57.6 39.04-76.16 35.2-28.16 85.76-30.72 123.52-5.76 5.76 3.84 11.52 8.32 16.64 13.44l106.24-106.24c-47.36-113.28-12.16-245.76 87.04-321.92 98.56-75.52 240-73.6 336 4.48 34.56 28.16 61.44 62.72 78.72 102.4 13.44 30.08 10.24 65.28-7.68 92.8-18.56 28.16-49.92 45.44-83.84 45.44h-0.64c-38.4 0-72.96-23.04-90.24-58.88-3.84-7.68-8.96-14.72-14.72-21.12-14.08-14.08-33.92-22.4-53.76-21.76-20.48 0-39.04 8.32-53.12 23.68-27.52 28.8-26.24 76.8 2.56 104.96 26.88 25.6 69.12 27.52 97.92 4.48 14.08-10.88 33.92-8.96 44.8 5.12 10.88 14.08 8.96 33.92-5.12 44.8-54.4 43.52-132.48 39.68-182.4-8.32-54.4-52.48-56.96-140.16-4.48-195.2 26.24-27.52 60.8-42.88 98.56-43.52 37.76-0.64 72.96 14.08 99.84 40.32 11.52 11.52 21.12 24.96 27.52 39.68 6.4 13.44 18.56 22.4 32.64 22.4 12.16 0 23.68-5.76 30.08-16.64 6.4-9.6 7.68-21.76 2.56-32-13.44-30.72-33.92-56.96-60.8-78.72-72.32-60.16-180.48-62.08-255.36-3.84-81.28 62.08-106.24 172.8-59.52 263.04 6.4 12.16 3.84 27.52-5.76 37.12l-149.76 149.76c-7.68 7.68-19.2 10.88-30.08 8.32-10.88-2.56-19.2-10.24-23.04-21.12-3.2-8.96-8.32-16-16-21.12-14.08-9.6-33.92-8.32-47.36 1.92-8.96 7.68-14.72 17.92-15.36 29.44-0.64 11.52 3.84 23.04 11.52 30.72 4.48 4.48 9.6 7.68 16 9.6 10.24 3.2 18.56 12.16 21.12 23.04 2.56 10.88-0.64 22.4-8.32 30.08L172.8 817.92c-16.64 16.64-17.92 42.88-3.2 58.88 7.68 8.32 17.92 12.8 28.8 12.8 10.88 0 21.76-3.84 29.44-12.16L544 561.28c9.6-9.6 24.96-12.16 37.12-5.76 81.28 42.24 179.84 26.88 244.48-37.76 12.8-12.8 32.64-12.8 45.44 0s12.8 32.64 0 45.44c-79.36 79.36-195.84 101.76-297.6 59.52l-300.8 300.8c-19.2 19.2-45.44 30.08-72.96 30.08z" fill="#515151" p-id="1632"></path></svg>