<?xml version="1.0" standalone="no"?><!DOCTYPE svg PUBLIC "-//W3C//DTD SVG 1.1//EN" "http://www.w3.org/Graphics/SVG/1.1/DTD/svg11.dtd"><svg t="1612232979472" class="icon" viewBox="0 0 1024 1024" version="1.1" xmlns="http://www.w3.org/2000/svg" p-id="2163" xmlns:xlink="http://www.w3.org/1999/xlink" width="200" height="200"><defs><style type="text/css"></style></defs><path d="M641.264198 404.31746h301.330511c23.929453 0 43.434215 19.279012 43.434215 43.073016v474.074074a43.118166 43.118166 0 0 1-43.434215 42.982716H426.124868a43.118166 43.118166 0 0 1-43.389066-42.892416v-301.736861H81.360141a43.524515 43.524515 0 0 1-30.65679-12.506525 43.569665 43.569665 0 0 1-12.777425-30.56649v-474.074075c0-23.839153 19.369312-43.118166 43.389065-43.118165h516.514991c23.974603 0 43.389065 19.233862 43.389066 43.073016v301.69171zM81.044092 576.699824h516.83104c0.270899 0 0.270899-474.074074 0.2709-474.074074l-516.785891 0.045149c-0.316049 0-0.316049 474.028924-0.316049 474.028925z m590.425397-12.958025l-94.859965 246.112169h39.957672l23.116755-63.435626h105.876543l23.071605 63.435626h40.409171l-94.859965-246.112169h-42.711816z m-20.407761 151.748854l41.04127-111.429983h1.399648l40.63492 111.429983h-83.075838z" p-id="2164" fill="#1296db"></path><path d="M176.491005 226.065608h152.561552c-10.700529-20.31746-19.053263-35.171781-25.103351-44.472663l24.471253-11.422927c5.959788 9.120282 14.854321 23.929453 26.728747 44.517813l-22.891005 11.377777h149.401058v23.523105h-58.694885c-11.332628 60.455732-35.66843 109.082187-73.052557 145.879365 28.173545 20.58836 72.917108 39.009524 134.275837 55.353791-9.752381 11.016578-17.156966 20.22716-22.258906 27.631747-59.778483-20.67866-103.889947-42.305467-132.424692-64.880424-28.579894 22.258907-74.316755 44.743563-137.120282 67.363669a1060.119929 1060.119929 0 0 0-19.053263-24.787302c60.591182-18.195414 106.192593-38.467725 136.804233-60.816931a286.97284 286.97284 0 0 1-73.729806-145.743915H176.491005v-23.523105z m219.338272 23.523105H261.869489c9.526631 52.102998 32.282187 95.176014 68.356966 129.173897 34.359083-31.966138 56.25679-75.039153 65.602822-129.173897z" p-id="2165" fill="#1296db"></path></svg>