<?xml version="1.0" standalone="no"?><!DOCTYPE svg PUBLIC "-//W3C//DTD SVG 1.1//EN" "http://www.w3.org/Graphics/SVG/1.1/DTD/svg11.dtd"><svg t="1607418614103" class="icon" viewBox="0 0 1024 1024" version="1.1" xmlns="http://www.w3.org/2000/svg" p-id="3814" xmlns:xlink="http://www.w3.org/1999/xlink" width="200" height="200"><defs><style type="text/css"></style></defs><path d="M399.968 120.468V399.67H120.766V120.468h279.202m8.589-55.841H120.766c-37.96 0-55.84 17.884-55.84 55.84v287.791c0 37.957 17.881 47.251 55.84 47.251h279.202c37.954 0 55.84-17.884 55.84-55.84V120.468c0.001-37.957-9.291-55.841-47.251-55.841z m-8.589 558.404v279.202H120.766V623.031h279.202m0-55.84H120.766c-37.96 0-55.84 9.292-55.84 47.251v274.905c0 37.957 30.767 68.727 68.724 68.727h274.908c37.96 0 47.251-17.884 47.251-55.84V623.031c0-37.956-17.887-55.84-55.841-55.84z m502.564-446.723v390.883H623.33V120.468h279.202m0-55.841H623.33c-37.96 0-55.84 17.884-55.84 55.84V511.35c0 37.957 17.881 55.84 55.84 55.84h279.202c37.954 0 55.84-17.884 55.84-55.84V120.468c0.001-37.957-17.886-55.841-55.84-55.841z m0 670.085v167.521H623.33V734.712h279.202m0-55.84H623.33c-37.96 0-55.84 17.884-55.84 55.84v167.521c0 37.957 9.289 55.84 47.248 55.84h287.794c37.954 0 55.84-30.77 55.84-68.727v12.887-167.521c0.001-37.956-17.886-55.84-55.84-55.84z" p-id="3815"></path></svg>