<?xml version="1.0" standalone="no"?><!DOCTYPE svg PUBLIC "-//W3C//DTD SVG 1.1//EN" "http://www.w3.org/Graphics/SVG/1.1/DTD/svg11.dtd"><svg t="1607392950453" class="icon" viewBox="0 0 1024 1024" version="1.1" xmlns="http://www.w3.org/2000/svg" p-id="828" xmlns:xlink="http://www.w3.org/1999/xlink" width="200" height="200"><defs><style type="text/css"></style></defs><path d="M656.611556 143.36a19.456 19.456 0 0 1 17.976888 12.060444L723.171556 273.066667l8.305777 20.024889 20.024889 8.305777 117.077334 48.583111a19.342222 19.342222 0 0 1 10.581333 10.467556 20.138667 20.138667 0 0 1 0 15.018667L830.577778 491.975111 822.272 512l8.305778 20.024889 48.583111 117.077333a19.569778 19.569778 0 0 1-10.581333 25.486222l-117.077334 48.583112-20.024889 8.305777-8.305777 20.024889-48.583112 117.077334a19.569778 19.569778 0 0 1-25.486222 10.581333L532.024889 830.577778 512 822.272l-20.024889 8.305778L375.466667 879.160889a19.569778 19.569778 0 0 1-25.486223-10.581333l-49.152-117.077334-8.305777-20.024889-19.456-8.305777-117.646223-48.583112a19.569778 19.569778 0 0 1-10.581333-25.486222L193.422222 532.024889l8.305778-20.024889-8.305778-20.024889L144.839111 375.466667a19.569778 19.569778 0 0 1 10.581333-25.486223L273.066667 300.828444l20.024889-8.305777 7.736888-19.456 48.583112-117.077334a19.569778 19.569778 0 0 1 26.055111-11.150222L491.975111 193.422222l20.024889 8.305778 20.024889-8.305778 117.077333-48.583111a19.569778 19.569778 0 0 1 7.509334-1.479111m0-52.337778a71.111111 71.111111 0 0 0-27.534223 5.461334L512 145.066667 394.922667 96.483556a71.907556 71.907556 0 0 0-93.866667 38.912l-48.583111 117.077333-117.077333 48.583111a71.907556 71.907556 0 0 0-38.912 93.866667L145.066667 512 96.483556 629.077333a71.907556 71.907556 0 0 0 38.912 93.866667l117.077333 48.583111 48.583111 117.077333a71.907556 71.907556 0 0 0 93.866667 38.912L512 878.933333l117.077333 48.583111a73.272889 73.272889 0 0 0 27.534223 5.461334 71.68 71.68 0 0 0 66.332444-44.373334l48.583111-117.077333 117.077333-48.583111a71.907556 71.907556 0 0 0 38.912-93.866667L878.933333 512l48.583111-117.077333a71.907556 71.907556 0 0 0-38.912-93.866667l-117.077333-48.583111-48.583111-117.077333A71.793778 71.793778 0 0 0 656.611556 91.022222z" fill="#8a8a8a" p-id="829"></path><path d="M460.913778 709.518222L265.443556 502.784l38.001777-35.953778 157.582223 166.570667 259.527111-273.408 38.001777 36.067555-297.642666 313.457778z" fill="#8a8a8a" p-id="830"></path></svg>