<?xml version="1.0" standalone="no"?><!DOCTYPE svg PUBLIC "-//W3C//DTD SVG 1.1//EN" "http://www.w3.org/Graphics/SVG/1.1/DTD/svg11.dtd"><svg t="1605606675548" class="icon" viewBox="0 0 1024 1024" version="1.1" xmlns="http://www.w3.org/2000/svg" p-id="4797" xmlns:xlink="http://www.w3.org/1999/xlink" width="200" height="200"><defs><style type="text/css"></style></defs><path d="M964.531672 0.031977L964.355801 0H59.644199l-0.175871 0.031977C26.788327 0.127906 0.327759 25.821038 0.327759 57.525755V964.635596a59.348416 59.348416 0 0 0 59.31644 59.364404h904.695614a59.348416 59.348416 0 0 0 59.316439-59.364404V57.525755c0.015988-31.704717-26.44458-57.397848-59.12458-57.493778z" fill="#CCCCCC" p-id="4798"></path><path d="M927.742689 191.955033h-863.365966V928.118413c0 17.683014 14.309491 32.024482 31.976518 32.024482h831.389448c17.651038 0 31.976517-14.32548 31.976517-32.024482V191.955033h-31.976517z" fill="#FFFFFF" p-id="4799"></path><path d="M761.464799 722.221618c6.779022-11.159805 10.967945-23.87047 10.967946-37.620372 0-42.384874-36.82096-76.743641-82.227614-76.743641H635.381392c-15.140881 0-27.403875 11.447593-27.403875 25.581213v204.649711c0 14.133621 12.262994 25.597202 27.403875 25.597202h82.227614c45.406654 0 82.227614-34.358768 82.227614-76.75963-0.015988-27.291957-15.380705-51.114463-38.371821-64.704483z m-98.679532-63.201586h27.403875c15.140881 0 27.403875 11.463581 27.403876 25.597202s-12.278983 25.581214-27.403876 25.581214h-27.403875v-51.178416z m54.823739 153.487283h-54.823739v-51.162428h54.823739c15.140881 0 27.403875 11.463581 27.403875 25.581214 0 14.133621-12.262994 25.581214-27.403875 25.581214z m-92.843818-270.777148c13.094384 5.068278 27.579746-2.126438 32.344247-16.036223l4.540666-13.749903h84.705794l4.332818 13.046419c4.764501 13.845832 19.249863 20.992584 32.360235 15.956282 13.094384-5.036301 19.857417-20.353053 15.076928-34.198885l-69.069277-200.540728c-4.764501-13.845832-15.412681-18.114697-25.149531-18.114697-9.752838 0-20.38503 3.501429-25.165519 17.427202l-69.069277 201.787812c-4.780489 13.95775 1.982544 29.338455 15.092916 34.422721z m79.14188-157.692195l31.832623 95.929552h-63.521351l31.688728-95.929552z" fill="#999999" p-id="4800"></path><path d="M384.125908 607.873593h-127.906069a63.953034 63.953034 0 0 0-63.953035 63.953034v127.906069a63.953034 63.953034 0 0 0 63.953035 63.953035h127.906069a63.953034 63.953034 0 0 0 63.953034-63.953035v-127.906069c0-35.334052-28.618983-63.953034-63.953034-63.953034z m0 159.882586a31.976517 31.976517 0 0 1-31.976518 31.976517h-63.953034a31.976517 31.976517 0 0 1-31.976517-31.976517v-63.953034a31.976517 31.976517 0 0 1 31.976517-31.976518h63.953034a31.976517 31.976517 0 0 1 31.976518 31.976518v63.953034z" fill="#CCCCCC" p-id="4801"></path><path d="M384.125908 288.10842h-127.906069a63.953034 63.953034 0 0 0-63.953035 63.953035v127.906069a63.953034 63.953034 0 0 0 63.953035 63.937046h127.906069a63.953034 63.953034 0 0 0 63.953034-63.937046v-127.906069a63.953034 63.953034 0 0 0-63.953034-63.953035z m-4.844443 100.006558l-63.857105 84.258123c-4.876419 6.42728-12.055147 7.754305-17.986791 4.252877a16.403953 16.403953 0 0 1-5.803738-4.892407l-30.697456-40.626166c-6.443268-8.521742-6.443268-22.335597 0-30.873327 6.443268-8.521742 16.899589-8.521742 23.342857 0l20.065265 26.540509 52.121723-68.781488c6.315362-8.329883 16.515871-8.329883 22.815245 0s6.299374 21.807985 0 30.121879z" fill="#48A0DC" p-id="4802"></path><path d="M735.867597 63.937046c-1.119178 0-2.158415 0.223836-3.245616 0.335754H96.353241a31.976517 31.976517 0 0 0 0 63.953034h639.530344a31.976517 31.976517 0 0 0 31.976518-31.976517l-0.015989-0.143894 0.015989-0.143895a32.008494 32.008494 0 0 0-31.992506-32.024482z m95.94554 0a31.976517 31.976517 0 0 0-31.976517 32.024482 31.976517 31.976517 0 1 0 31.976517-32.024482z m95.929552 0a31.992506 31.992506 0 0 0 0 64.016988 31.992506 31.992506 0 1 0 0-64.016988z" fill="#FFFFFF" p-id="4803"></path></svg>