<?xml version="1.0" standalone="no"?><!DOCTYPE svg PUBLIC "-//W3C//DTD SVG 1.1//EN" "http://www.w3.org/Graphics/SVG/1.1/DTD/svg11.dtd"><svg t="1605668745648" class="icon" viewBox="0 0 1024 1024" version="1.1" xmlns="http://www.w3.org/2000/svg" p-id="9038" xmlns:xlink="http://www.w3.org/1999/xlink" width="200" height="200"><defs><style type="text/css"></style></defs><path d="M466.576461 622.388133c-3.928472 0-7.855922-1.49812-10.853186-4.496407l-49.912783-49.912783c-26.102495-26.101471-38.527478-62.412468-34.986839-102.242616 3.443425-38.744419 21.695115-76.43688 51.392484-106.133226l150.275585-150.275585c29.696346-29.697369 67.388806-47.948035 106.133226-51.392484 39.826054-3.541663 76.141144 8.884344 102.243639 34.986839l49.637514 49.637514c53.250808 53.250808 46.156226 146.991796-15.816221 208.965266-5.993504 5.994528-15.712867 5.994528-21.707394 0-5.994528-5.993504-5.994528-15.712867 0-21.707394 50.001811-50.003857 57.097416-124.269281 15.816221-165.550477l-49.637514-49.637514c-40.956807-40.956807-114.960265-33.598212-164.962076 16.405645L443.922509 381.310495c-50.002834 50.002834-57.362452 124.004245-16.405645 164.962076l49.912783 49.912783c5.993504 5.993504 5.993504 15.712867 0 21.707394C474.433406 620.888989 470.50391 622.388133 466.576461 622.388133z" p-id="9039"></path><path d="M331.631026 866.949105c-34.516118 0.001023-65.676815-12.368702-88.822978-35.514865l-49.638537-49.638537c-53.293787-53.292764-46.232974-147.069567 15.739473-209.042014 5.993504-5.994528 15.712867-5.994528 21.707394 0 5.994528 5.993504 5.994528 15.712867 0 21.707394-50.002834 50.002834-57.063647 124.304074-15.739473 165.627225l49.638537 49.638537c40.871873 40.87085 114.804722 33.44267 164.807556-16.560164l150.275585-150.275585c24.628934-24.628934 39.758516-55.55734 42.600237-87.086427 2.755764-30.571273-6.492878-58.172911-26.040073-77.721129l-50.067302-50.068326c-5.994528-5.994528-5.994528-15.712867 0-21.707394 5.994528-5.994528 15.71389-5.993504 21.707394 0l50.067302 50.067302c26.098401 26.097378 38.495756 62.386886 34.908044 102.184287-3.485381 38.675858-21.7647 76.333526-51.468209 106.038058L451.030393 814.875099c-29.703509 29.702486-67.361177 47.981804-106.037035 51.467185C340.491835 866.747513 336.032266 866.949105 331.631026 866.949105z" p-id="9040"></path></svg>