<?xml version="1.0" standalone="no"?><!DOCTYPE svg PUBLIC "-//W3C//DTD SVG 1.1//EN" "http://www.w3.org/Graphics/SVG/1.1/DTD/svg11.dtd"><svg t="1606579310915" class="icon" viewBox="0 0 1024 1024" version="1.1" xmlns="http://www.w3.org/2000/svg" p-id="1153" xmlns:xlink="http://www.w3.org/1999/xlink" width="200" height="200"><defs><style type="text/css"></style></defs><path d="M987.943424 614.4a36.0448 36.0448 0 0 1 36.096 36.3008v164.0448a36.0448 36.0448 0 0 1-35.84 36.3008 36.0448 36.0448 0 0 1-35.84-36.3008v-57.6C859.124224 913.6128 686.068224 1024 499.597824 1024c-225.792 0-415.0272-139.3152-497.1008-354.048a36.4544 36.4544 0 0 1 20.48-46.9504c18.432-7.2192 39.2192 2.048 46.3872 20.736 71.68 187.4944 234.9056 307.712 430.2336 307.712 172.5952 0 333.824-111.7184 408.9344-263.8848l-75.3152 0.512a36.0448 36.0448 0 0 1-36.096-36.0448 36.096 36.096 0 0 1 35.584-36.5568L987.943424 614.4z m-463.36-614.4c225.6896 0 414.976 139.3152 497.0496 354.048a36.4544 36.4544 0 0 1-20.48 46.9504 35.6864 35.6864 0 0 1-46.3872-20.736c-71.68-187.4944-234.9056-307.712-430.2336-307.712-172.5952 0-333.824 111.7184-408.9344 263.8848l75.3152-0.512a36.0448 36.0448 0 0 1 36.096 36.0448 36.096 36.096 0 0 1-35.584 36.5568L36.135424 409.6A36.0448 36.0448 0 0 1 0.039424 373.2992V209.2544c0-20.0704 16.0256-36.3008 35.84-36.3008 19.7632 0 35.84 16.2304 35.84 36.3008v57.6C164.954624 110.3872 338.010624 0 524.481024 0z" fill="#555555" p-id="1154"></path></svg>