<?xml version="1.0" standalone="no"?><!DOCTYPE svg PUBLIC "-//W3C//DTD SVG 1.1//EN" "http://www.w3.org/Graphics/SVG/1.1/DTD/svg11.dtd"><svg t="1607424200964" class="icon" viewBox="0 0 1024 1024" version="1.1" xmlns="http://www.w3.org/2000/svg" p-id="5892" xmlns:xlink="http://www.w3.org/1999/xlink" width="200" height="200"><defs><style type="text/css"></style></defs><path d="M1024 330.88v-192h-192v64H616.96C601.6 159.36 560.64 128 512 128s-89.6 31.36-104.96 74.88H192v-64H0v192h192v-64h211.84c5.76 23.68 19.2 44.16 37.12 58.88C192 361.6 0 581.76 0 848c0 17.92 14.08 32 32 32s32-14.08 32-32C64 592 264.96 384 512 384s448 208 448 464c0 17.92 14.08 32 32 32s32-14.08 32-32c0-266.24-192-486.4-440.96-522.24 17.92-15.36 31.36-35.84 37.12-58.88H832v64h192z m-128-128h64v64h-64v-64z m-768 64H64v-64h64v64zM512 192c26.24 0 48 21.76 48 48s-21.76 48-48 48-48-21.76-48-48S485.76 192 512 192z" p-id="5893"></path></svg>